<svg version="1.1" xmlns="http://www.w3.org/2000/svg" viewBox="0 0 759 757" width="759" height="757">
  <!-- svg-source:excalidraw -->
  
  <defs>
    <style>
      @font-face {
        font-family: "Virgil";
        src: url("https://excalidraw.com/Virgil.woff2");
      }
      @font-face {
        font-family: "Cascadia";
        src: url("https://excalidraw.com/Cascadia.woff2");
      }
    </style>
  </defs>
  <g transform="translate(581 10) rotate(0 37.5 12.5)"><text x="0" y="18" font-family="Virgil, Segoe UI Emoji" font-size="20px" fill="#000000" text-anchor="start" style="white-space: pre;" direction="ltr">NetCDF</text></g><g stroke-linecap="round" transform="translate(258 147) rotate(0 65.5 37.5)"><path d="M-1.42 -0.24 C50.22 -0.04, 100.94 -1.67, 131.46 -1.18 M-0.14 0.44 C35.08 1.78, 68.97 0.24, 130.08 -0.59 M131.61 1.36 C131.12 17.19, 130.64 34.87, 130.47 74.79 M130.26 -0.72 C130.47 19.21, 130.26 37.76, 130.67 74.09 M129.99 74.99 C88.55 76.97, 44.87 73.78, -0.47 73.29 M130.3 75.56 C80.9 76.82, 31.15 75.72, -0.28 74.04 M1.85 74.76 C1.1 45.17, -1.83 19.42, 1.19 -0.13 M0.01 75.12 C0.84 57.35, -0.7 39.83, 0.4 0.09" stroke="#1864ab" stroke-width="1" fill="none"></path></g><g stroke-linecap="round" transform="translate(256 403) rotate(0 68 38.5)"><path d="M0.71 0.87 C41.76 -0.14, 83.48 0.49, 135.83 0.13 M0.53 0.18 C46.46 -0.74, 94.49 0.21, 136.47 0.28 M135.48 1.5 C138.05 30.3, 136.21 61.06, 136.15 76.82 M135.3 0.41 C135.77 18.51, 135.53 39.88, 135.4 76.62 M137.34 76.84 C96.79 75.57, 60.08 76.13, -0.93 76.16 M135.87 77.6 C90.81 76.25, 46.55 77.54, 0.48 77.38 M-1.89 77.98 C-1.08 55.51, 2.25 37.11, -0.56 -1.1 M0.96 76.83 C-0.66 53.46, 0.23 30.37, -0.4 0.33" stroke="#1864ab" stroke-width="1" fill="none"></path></g><g stroke-linecap="round" transform="translate(608 398) rotate(0 65.5 37.5)"><path d="M-0.93 -0.84 C26.92 -0.79, 52.22 0.68, 132.21 -0.9 M0.48 0.38 C33.2 -2.06, 68 -2.06, 131.49 -0.9 M130.44 -1.1 C131.67 16.67, 130.6 35.52, 130.65 73.58 M130.6 0.33 C130.57 22.35, 130.87 45.05, 130.91 74.51 M131.94 74.92 C77.67 75.53, 28.79 75.46, 1.76 73.14 M130.28 74.34 C83.28 74.7, 34.66 75.57, -0.54 74.01 M-0.74 74.05 C0.73 50.77, 1.6 29.61, 1.85 -0.27 M-0.35 75.97 C-0.4 58.82, 1.15 40.44, 0.14 -0.34" stroke="#1864ab" stroke-width="1" fill="none"></path></g><g stroke-linecap="round"><g transform="translate(621.000000502191 38) rotate(0 -276.4867413897897 45.851301120823734)"><path d="M0.41 -0.77 C-1.61 12.05, 1.39 25.01, -1.58 39.22 M-0.95 0.5 C0.03 11.35, -0.23 22.31, 0.27 38.36 M-0.62 37.83 C-186.92 37.53, -373.96 38.09, -552.83 38.05 M0.25 37.5 C-216.64 38.08, -432.99 38.25, -552.71 37.71 M-552.65 37.48 C-550.82 56.72, -551.85 72.63, -553.39 91.17 M-553.17 37.76 C-553.66 48.33, -551.86 60.49, -552.07 92.47" stroke="#1864ab" stroke-width="1" fill="none"></path></g><g transform="translate(621.000000502191 38) rotate(0 -276.4867413897897 45.851301120823734)"><path d="M-561.35 65.87 C-560.04 74.53, -553.71 83.37, -553.65 93.85 M-562.71 67.14 C-558.79 74.45, -556.15 81.8, -551.8 92.99" stroke="#1864ab" stroke-width="1" fill="none"></path></g><g transform="translate(621.000000502191 38) rotate(0 -276.4867413897897 45.851301120823734)"><path d="M-542.48 65.69 C-547.64 74.49, -547.79 83.39, -553.65 93.85 M-543.84 66.95 C-545.59 74.19, -548.61 81.6, -551.8 92.99" stroke="#1864ab" stroke-width="1" fill="none"></path></g></g><g transform="translate(210.5 41) rotate(0 137.5 12.5)"><text x="137.5" y="18" font-family="Virgil, Segoe UI Emoji" font-size="20px" fill="#1864ab" text-anchor="middle" style="white-space: pre;" direction="ltr">widely used spec for storing</text></g><g stroke-linecap="round" transform="translate(20.404040404042462 149.404040404042) rotate(0 52.020202020201026 41.61616161616081)"><path d="M0 0 L104.04 0 L104.04 83.23 L0 83.23" stroke="none" stroke-width="0" fill="#fff"></path><path d="M0 0 C26.5 0, 53.01 0, 104.04 0 M0 0 C36.84 0, 73.67 0, 104.04 0 M104.04 0 C104.04 17.3, 104.04 34.6, 104.04 83.23 M104.04 0 C104.04 30.7, 104.04 61.4, 104.04 83.23 M104.04 83.23 C64.18 83.23, 24.31 83.23, 0 83.23 M104.04 83.23 C67.89 83.23, 31.74 83.23, 0 83.23 M0 83.23 C0 63.41, 0 43.59, 0 0 M0 83.23 C0 56.72, 0 30.2, 0 0" stroke="#1864ab" stroke-width="1" fill="none"></path></g><g stroke-linecap="round" transform="translate(15.202020202020549 144.20202020202123) rotate(0 52.020202020201026 41.61616161616081)"><path d="M0 0 L104.04 0 L104.04 83.23 L0 83.23" stroke="none" stroke-width="0" fill="#fff"></path><path d="M0 0 C41.18 0, 82.37 0, 104.04 0 M0 0 C37.71 0, 75.41 0, 104.04 0 M104.04 0 C104.04 22.42, 104.04 44.85, 104.04 83.23 M104.04 0 C104.04 16.95, 104.04 33.9, 104.04 83.23 M104.04 83.23 C63.1 83.23, 22.16 83.23, 0 83.23 M104.04 83.23 C65.5 83.23, 26.96 83.23, 0 83.23 M0 83.23 C0 54.34, 0 25.44, 0 0 M0 83.23 C0 66.52, 0 49.8, 0 0" stroke="#1864ab" stroke-width="1" fill="none"></path></g><g stroke-linecap="round" transform="translate(10 139) rotate(0 52.020202020201026 41.61616161616081)"><path d="M0 0 L104.04 0 L104.04 83.23 L0 83.23" stroke="none" stroke-width="0" fill="#fff"></path><path d="M0 0 C28.8 0, 57.6 0, 104.04 0 M0 0 C26.64 0, 53.27 0, 104.04 0 M104.04 0 C104.04 24.18, 104.04 48.37, 104.04 83.23 M104.04 0 C104.04 22.27, 104.04 44.54, 104.04 83.23 M104.04 83.23 C76.68 83.23, 49.32 83.23, 0 83.23 M104.04 83.23 C79.09 83.23, 54.13 83.23, 0 83.23 M0 83.23 C0 63.43, 0 43.64, 0 0 M0 83.23 C0 61.67, 0 40.1, 0 0" stroke="#1864ab" stroke-width="1" fill="none"></path></g><g stroke-linecap="round" transform="translate(10 139) rotate(0 57.22222222222112 46.81818181818085)"><path d="M0 0 C33.32 0, 66.63 0, 114.44 0 M0 0 C28.8 0, 57.59 0, 114.44 0 M114.44 0 C114.44 19.42, 114.44 38.84, 114.44 93.64 M114.44 0 C114.44 34.35, 114.44 68.69, 114.44 93.64 M114.44 93.64 C71.83 93.64, 29.21 93.64, 0 93.64 M114.44 93.64 C81.78 93.64, 49.11 93.64, 0 93.64 M0 93.64 C0 73.98, 0 54.32, 0 0 M0 93.64 C0 60.23, 0 26.82, 0 0" stroke="#1864ab" stroke-width="1" fill="none"></path></g><g transform="translate(18 166) rotate(0 50.72 19.8125)"><text x="50.720000000000006" y="13.812500000000004" font-family="Virgil, Segoe UI Emoji" font-size="15.850000000000001px" fill="#1864ab" text-anchor="middle" style="white-space: pre;" direction="ltr">array-based </text><text x="50.720000000000006" y="33.62500000000001" font-family="Virgil, Segoe UI Emoji" font-size="15.850000000000001px" fill="#1864ab" text-anchor="middle" style="white-space: pre;" direction="ltr">data</text></g><g stroke-linecap="round"><g transform="translate(120.07726242250806 182.45991122598468) rotate(0 63.28526422343788 0.5013327410106285)"><path d="M-0.16 0.47 C44.28 -0.35, 86.59 -0.08, 126.34 1.72 M0.97 -0.72 C44.77 -0.31, 88.15 0.38, 126.73 1.22" stroke="#1864ab" stroke-width="1" fill="none"></path></g><g transform="translate(120.07726242250806 182.45991122598468) rotate(0 63.28526422343788 0.5013327410106285)"><path d="M98.18 11.39 C108.36 6.98, 116.37 3.66, 126.37 2.37 M99.31 10.2 C109.05 7.7, 118.33 4.83, 126.76 1.88" stroke="#1864ab" stroke-width="1" fill="none"></path></g><g transform="translate(120.07726242250806 182.45991122598468) rotate(0 63.28526422343788 0.5013327410106285)"><path d="M98.59 -9.13 C108.55 -6.38, 116.42 -2.54, 126.37 2.37 M99.71 -10.31 C109.21 -5.7, 118.35 -1.45, 126.76 1.88" stroke="#1864ab" stroke-width="1" fill="none"></path></g></g><g transform="translate(299 173) rotate(0 22.5 12.5)"><text x="22.5" y="18" font-family="Virgil, Segoe UI Emoji" font-size="20px" fill="#1864ab" text-anchor="middle" style="white-space: pre;" direction="ltr">grids</text></g><g transform="translate(157.5 158) rotate(0 20.5 12.5)"><text x="20.5" y="18" font-family="Virgil, Segoe UI Emoji" font-size="20px" fill="#1864ab" text-anchor="middle" style="white-space: pre;" direction="ltr">as...</text></g><g stroke-linecap="round" transform="translate(595 561) rotate(0 77 74)"><path d="M77.44 -1.37 C98.55 18.26, 116.78 40.53, 152.01 74.96 M78.16 -0.89 C100.41 24.04, 124.72 46.12, 153.27 75.4 M155.51 75.85 C134.29 95.43, 115.72 112.2, 76.18 148.57 M153.89 75.23 C132.06 94.52, 111.04 116.07, 78.19 148.92 M76.52 146.27 C57.62 129.98, 35.36 107.21, 1.46 74.33 M77.33 147.98 C61.93 132.08, 45.95 117.36, -0.24 74.81 M1.68 74.26 C16.14 61.58, 30.72 44.44, 76.75 1.04 M0.23 75.3 C28.17 48.58, 55.32 21.37, 77.58 0.07" stroke="#1864ab" stroke-width="1" fill="none"></path></g><g transform="translate(275.5 407) rotate(0 47.5 12.5)"><text x="47.5" y="18" font-family="Virgil, Segoe UI Emoji" font-size="20px" fill="#1864ab" text-anchor="middle" style="white-space: pre;" direction="ltr">dimensions</text></g><g transform="translate(623 613) rotate(0 52 12.5)"><text x="52" y="18" font-family="Virgil, Segoe UI Emoji" font-size="20px" fill="#1864ab" text-anchor="middle" style="white-space: pre;" direction="ltr">attributes</text></g><g transform="translate(680 494) rotate(0 21.839999999999918 14.368421052631504)"><text x="21.839999999999943" y="19.736842105263054" font-family="Virgil, Segoe UI Emoji" font-size="22.98947368421042px" fill="#1864ab" text-anchor="middle" style="white-space: pre;" direction="ltr">with</text></g><g transform="translate(636.0799999999999 442) rotate(0 34 14)"><text x="34" y="10" font-family="Virgil, Segoe UI Emoji" font-size="11.359999999999983px" fill="#087f5b" text-anchor="middle" style="white-space: pre;" direction="ltr">temperature</text><text x="34" y="24" font-family="Virgil, Segoe UI Emoji" font-size="11.359999999999983px" fill="#087f5b" text-anchor="middle" style="white-space: pre;" direction="ltr">precipitation</text></g><g transform="translate(296.5799999999999 435) rotate(0 23.5 28)"><text x="23.5" y="10" font-family="Virgil, Segoe UI Emoji" font-size="11.359999999999983px" fill="#087f5b" text-anchor="middle" style="white-space: pre;" direction="ltr">D0: time</text><text x="23.5" y="24" font-family="Virgil, Segoe UI Emoji" font-size="11.359999999999983px" fill="#087f5b" text-anchor="middle" style="white-space: pre;" direction="ltr">D1: long</text><text x="23.5" y="38" font-family="Virgil, Segoe UI Emoji" font-size="11.359999999999983px" fill="#087f5b" text-anchor="middle" style="white-space: pre;" direction="ltr">D3: lat</text><text x="23.5" y="52" font-family="Virgil, Segoe UI Emoji" font-size="11.359999999999983px" fill="#087f5b" text-anchor="middle" style="white-space: pre;" direction="ltr"></text></g><g transform="translate(630.5799999999999 641) rotate(1.0756311110294854 43.5 28)"><text x="43.5" y="10" font-family="Virgil, Segoe UI Emoji" font-size="11.359999999999983px" fill="#087f5b" text-anchor="middle" style="white-space: pre;" direction="ltr">units</text><text x="43.5" y="24" font-family="Virgil, Segoe UI Emoji" font-size="11.359999999999983px" fill="#087f5b" text-anchor="middle" style="white-space: pre;" direction="ltr">standard_name</text><text x="43.5" y="38" font-family="Virgil, Segoe UI Emoji" font-size="11.359999999999983px" fill="#087f5b" text-anchor="middle" style="white-space: pre;" direction="ltr">long_name</text><text x="43.5" y="52" font-family="Virgil, Segoe UI Emoji" font-size="11.359999999999983px" fill="#087f5b" text-anchor="middle" style="white-space: pre;" direction="ltr"></text></g><g transform="translate(56.974216235897245 456.00370047938554) rotate(1.0756311110294854 31.5 7)"><text x="31.5" y="10" font-family="Virgil, Segoe UI Emoji" font-size="11.359999999999983px" fill="#087f5b" text-anchor="middle" style="white-space: pre;" direction="ltr">D0, D1, D2</text></g><g transform="translate(639.0442857142857 727) rotate(0 37.5 10)"><text x="37.5" y="14" font-family="Virgil, Segoe UI Emoji" font-size="15.417142857142832px" fill="#a61e4d" text-anchor="middle" style="white-space: pre;" direction="ltr">metadata</text></g><g stroke-linecap="round" transform="translate(17 377) rotate(0 68.5 62)"><path d="M69.71 -0.57 C90.76 21.76, 114.86 44.55, 138.91 64.88 M69.61 0.49 C90.7 20.69, 113.09 41.46, 137.32 62.97 M137.48 62.9 C124.6 75.2, 108.25 88.84, 70.58 124.85 M137.43 63.07 C112.98 84.48, 88.6 107.14, 69.78 124.26 M67.19 124.07 C42.47 100.12, 19.37 81.56, 1.82 62.48 M69.8 123.14 C51.49 107.76, 34.06 91.59, 0.59 62.83 M-0.31 63.61 C18.16 47.73, 34.62 28.47, 69.82 1.88 M-0.03 62.39 C24.57 39.93, 50.5 18.17, 69.88 0.33" stroke="#1864ab" stroke-width="1" fill="none"></path></g><g transform="translate(41.5 424.5) rotate(0 48 12.5)"><text x="48" y="18" font-family="Virgil, Segoe UI Emoji" font-size="20px" fill="#1864ab" text-anchor="middle" style="white-space: pre;" direction="ltr">identifiers</text></g><g transform="translate(131 565) rotate(0 76 12.5)"><text x="76" y="18" font-family="Virgil, Segoe UI Emoji" font-size="20px" fill="#1864ab" text-anchor="middle" style="white-space: pre;" direction="ltr">based on their </text></g><g transform="translate(124.49999999999989 296) rotate(358.2030747273042 24.30000000000001 13.5)"><text x="24.300000000000004" y="18.999999999999993" font-family="Virgil, Segoe UI Emoji" font-size="21.599999999999998px" fill="#1864ab" text-anchor="middle" style="white-space: pre;" direction="ltr">have</text></g><g transform="translate(553.4999999999999 316) rotate(0.37570464465689546 24.30000000000001 13.5)"><text x="24.300000000000004" y="18.999999999999993" font-family="Virgil, Segoe UI Emoji" font-size="21.599999999999998px" fill="#1864ab" text-anchor="middle" style="white-space: pre;" direction="ltr">have</text></g><g transform="translate(241.17744259333347 317.49203932146565) rotate(0.3891366669636089 58.5 27)"><text x="0" y="19" font-family="Virgil, Segoe UI Emoji" font-size="21.599999999999998px" fill="#1864ab" text-anchor="start" style="white-space: pre;" direction="ltr">defined on </text><text x="0" y="46" font-family="Virgil, Segoe UI Emoji" font-size="21.599999999999998px" fill="#1864ab" text-anchor="start" style="white-space: pre;" direction="ltr">various </text></g><g transform="translate(625 412) rotate(0 43.5 12.5)"><text x="43.5" y="18" font-family="Virgil, Segoe UI Emoji" font-size="20px" fill="#1864ab" text-anchor="middle" style="white-space: pre;" direction="ltr">variables</text></g><g stroke-linecap="round"><g transform="translate(86 500) rotate(0 116.44969049438649 37.86663737718163)"><path d="M-1.15 0.55 C-1.09 29.98, -3.42 64.58, -2.18 90.1 M0.99 0.97 C-0.94 34.94, -2.47 69.21, -2.12 91.9 M-4.54 91.61 C84.61 91.67, 171.4 91.78, 236.99 91.05 M-3.3 92.81 C75.8 93.52, 156.21 93.79, 235.22 92.33 M235.05 90.78 C236.19 60.7, 237.34 31.44, 237.19 -17.28 M235.34 91.15 C235.64 49.69, 236.88 8.99, 237.44 -17.65" stroke="#1864ab" stroke-width="1" fill="none"></path></g><g transform="translate(86 500) rotate(0 116.44969049438649 37.86663737718163)"><path d="M245.88 11.33 C244.68 -1.06, 240.07 -8.21, 238.26 -19.55 M248.02 11.74 C242.63 0.54, 238.62 -10.34, 238.32 -17.75" stroke="#1864ab" stroke-width="1" fill="none"></path></g><g transform="translate(86 500) rotate(0 116.44969049438649 37.86663737718163)"><path d="M225.37 10.84 C231.27 -1.21, 233.77 -8.2, 238.26 -19.55 M227.51 11.26 C229.81 0.3, 233.5 -10.4, 238.32 -17.75" stroke="#1864ab" stroke-width="1" fill="none"></path></g></g><g stroke-linecap="round"><g transform="translate(320 224) rotate(0 -117.46591896073062 76.09906758632482)"><path d="M-1.49 -0.28 C-91.91 61.16, -181.4 120.25, -234.18 152.48 M-0.76 0.76 C-65.28 41.5, -129.26 83.3, -233.3 152.46" stroke="#1864ab" stroke-width="1" fill="none"></path></g><g transform="translate(320 224) rotate(0 -117.46591896073062 76.09906758632482)"><path d="M-217.4 127.98 C-224.34 138.93, -230.08 148.75, -233.53 153.08 M-216.45 129.34 C-221.03 135.3, -226.02 142.26, -232.39 153.06" stroke="#1864ab" stroke-width="1" fill="none"></path></g><g transform="translate(320 224) rotate(0 -117.46591896073062 76.09906758632482)"><path d="M-206.07 145.09 C-217.39 149.54, -227.5 152.74, -233.53 153.08 M-205.12 146.45 C-212.65 147.72, -220.73 150, -232.39 153.06" stroke="#1864ab" stroke-width="1" fill="none"></path></g></g><g stroke-linecap="round"><g transform="translate(323 224) rotate(0 -0.5892813634127378 89.29930670373142)"><path d="M1.68 -1.02 C-1.61 47.93, 1.9 94.19, -2.86 179.62 M-0.29 0.51 C-0.7 66.44, -2.6 134.43, -0.46 177.75" stroke="#1864ab" stroke-width="1" fill="none"></path></g><g transform="translate(323 224) rotate(0 -0.5892813634127378 89.29930670373142)"><path d="M-9.65 148.77 C-10.31 158.45, -3.68 165.4, -2.33 179.37 M-11.63 150.31 C-6.55 159.48, -3.96 170.65, 0.08 177.51" stroke="#1864ab" stroke-width="1" fill="none"></path></g><g transform="translate(323 224) rotate(0 -0.5892813634127378 89.29930670373142)"><path d="M10.86 148.32 C4.84 158.03, 6.08 165.1, -2.33 179.37 M8.89 149.86 C6.2 159.09, 1.02 170.43, 0.08 177.51" stroke="#1864ab" stroke-width="1" fill="none"></path></g></g><g stroke-linecap="round"><g transform="translate(335.8649598919026 223) rotate(0 159.92051386803718 85.98313989083604)"><path d="M1.2 -0.65 C129.44 70.71, 256.92 138.77, 319.33 172.62 M-0.55 -0.62 C108.68 59.39, 218.02 117.95, 320.39 171.89" stroke="#1864ab" stroke-width="1" fill="none"></path></g><g transform="translate(335.8649598919026 223) rotate(0 159.92051386803718 85.98313989083604)"><path d="M292.59 166.72 C304.5 171.21, 316.06 172, 319.19 172.87 M289.8 166.77 C300.54 169.49, 311.59 171.1, 320.89 171.7" stroke="#1864ab" stroke-width="1" fill="none"></path></g><g transform="translate(335.8649598919026 223) rotate(0 159.92051386803718 85.98313989083604)"><path d="M302.2 148.58 C310.37 160.26, 318.1 168.28, 319.19 172.87 M299.41 148.63 C306.9 157.47, 314.69 165.25, 320.89 171.7" stroke="#1864ab" stroke-width="1" fill="none"></path></g></g><g stroke-linecap="round"><g transform="translate(674.5793450865796 475.21127946127956) rotate(0 -0.6059897967102188 40.57543930053987)"><path d="M-0.9 0.42 C-1.27 32.13, -1.23 63.47, -0.65 80.59 M-0.7 -0.73 C-0.31 21.43, 0.66 43.83, -1.03 81.89" stroke="#1864ab" stroke-width="1" fill="none"></path></g><g transform="translate(674.5793450865796 475.21127946127956) rotate(0 -0.6059897967102188 40.57543930053987)"><path d="M-11.36 53.83 C-8.47 64.94, -4.72 75.79, -1.48 80.72 M-11.16 52.67 C-8.1 60.76, -4.57 69.02, -1.86 82.02" stroke="#1864ab" stroke-width="1" fill="none"></path></g><g transform="translate(674.5793450865796 475.21127946127956) rotate(0 -0.6059897967102188 40.57543930053987)"><path d="M9.15 54.43 C4.14 65.51, 0 76.12, -1.48 80.72 M9.35 53.27 C6.97 61.05, 5.04 69.15, -1.86 82.02" stroke="#1864ab" stroke-width="1" fill="none"></path></g></g><g stroke-linecap="round"><g transform="translate(606.0000000000001 434.71548479439764) rotate(0 -105.22616083086302 1.652583965074399)"><path d="M0.3 0.71 C-69.51 3.94, -139.83 4.25, -210.75 3.55 M0.14 -0.72 C-60.01 1.89, -121.3 4.84, -209.56 3.84" stroke="#1864ab" stroke-width="1" fill="none"></path></g><g transform="translate(606.0000000000001 434.71548479439764) rotate(0 -105.22616083086302 1.652583965074399)"><path d="M-181.04 -5.63 C-190.76 -1.57, -201.01 0.53, -211.54 2.82 M-181.22 -7.26 C-188.62 -4.19, -197.35 0.68, -210.2 3.16" stroke="#1864ab" stroke-width="1" fill="none"></path></g><g transform="translate(606.0000000000001 434.71548479439764) rotate(0 -105.22616083086302 1.652583965074399)"><path d="M-181.03 14.89 C-190.56 12.12, -200.81 7.39, -211.54 2.82 M-181.21 13.27 C-188.81 10.36, -197.55 9.26, -210.2 3.16" stroke="#1864ab" stroke-width="1" fill="none"></path></g></g><g transform="translate(448 416) rotate(0 66.29166666666663 21.5)"><text x="0" y="14.499999999999986" font-family="Virgil, Segoe UI Emoji" font-size="17.544382473024186px" fill="#1864ab" text-anchor="start" style="white-space: pre;" direction="ltr">Measured along</text><text x="0" y="35.99999999999997" font-family="Virgil, Segoe UI Emoji" font-size="17.544382473024186px" fill="#1864ab" text-anchor="start" style="white-space: pre;" direction="ltr">the grid's</text></g></svg>